<svg xmlns="http://www.w3.org/2000/svg" viewBox="0 0 79.1 59.62"><title>helicopter</title><g id="Layer_77_copy" data-name="Layer 77 copy"><polygon points="72.97 15.73 71.97 15.15 69.27 16.61 70.27 17.2 72.97 15.73" style="fill:#8fd8fa"/><polygon points="69.27 16.61 72.12 20.73 73.12 21.31 70.27 17.2 69.27 16.61" style="fill:#9a1503"/><polygon points="72.97 15.73 70.27 17.2 73.12 21.31 75.22 19.96 72.97 15.73" style="fill:#b41b06"/><path d="M81.38,19.5l-24,12.6c-1,.5-1.4.7-1.4,1.86a5.74,5.74,0,0,0,2.6,4.5A2.15,2.15,0,0,0,61,38.38L83.21,23.56c.62-.45,2-2.91,1.66-3.41C84.27,19.32,81.68,19.3,81.38,19.5Z" transform="translate(-10.54 -7.57)" style="fill:#db2107"/><polygon points="72.61 2.99 68.45 14.03 69.45 14.61 73.61 3.57 72.61 2.99" style="fill:#fa493f"/><polygon points="75.5 2.48 74.5 1.9 72.61 2.99 73.61 3.57 75.5 2.48" style="fill:#ff6057"/><polygon points="73.61 3.57 69.45 14.61 72.77 12.69 75.5 2.48 73.61 3.57" style="fill:#b41b06"/><path d="M53.83,43.86a1.72,1.72,0,0,0,.78-1.35c0-.49-.36-.69-.79-.45A1.74,1.74,0,0,0,53,43.41C53.05,43.91,53.4,44.11,53.83,43.86Z" transform="translate(-10.54 -7.57)" style="fill:#754c05"/><path d="M51.16,45A1.76,1.76,0,0,0,52,43.58c0-.51-.37-.72-.81-.46a1.74,1.74,0,0,0-.8,1.39C50.36,45,50.72,45.23,51.16,45Z" transform="translate(-10.54 -7.57)" style="fill:#754c05"/><polygon points="43.03 30.57 43.03 32.11 43.68 31.74 43.67 30.2 43.03 30.57" style="fill:#9a1503"/><polygon points="42.49 30.65 41.59 31.17 41.59 32.95 42.5 32.42 42.49 30.65" style="fill:#9a1503"/><polygon points="40.18 33.76 41.21 33.17 41.2 31.26 40.17 31.85 40.18 33.76" style="fill:#9a1503"/><polygon points="39.81 31.95 38.96 32.43 38.97 34.46 39.81 33.97 39.81 31.95" style="fill:#9a1503"/><polygon points="38.54 32.42 36.8 33.43 36.8 33.43 36.73 33.47 36.74 35.5 38.55 34.45 38.54 32.42" style="fill:#9a1503"/><path d="M44.79,46.68a1.46,1.46,0,0,0-.51.21c-.48.25-1.25.68-2,1.13l-.05,0,.05,0-.06,0h0c-1.2.69-2.42,1.43-2.72,1.67l-.05.05a22.24,22.24,0,0,0-1.25,5.58c0,.1,0,.16,0,.17a22.87,22.87,0,0,0,3.31-1.72l.1-.05,0,0c.67-.38,1.29-.75,1.71-1a4.3,4.3,0,0,0,.45-.3.48.48,0,0,0,.1-.09,29,29,0,0,0,.91-5.51C44.81,46.73,44.8,46.68,44.79,46.68Z" transform="translate(-10.54 -7.57)" style="fill:#d0dcd7"/><polygon points="34.95 34.81 33.3 33.69 23.29 27.87 24.94 28.99 34.95 34.81" style="fill:#7d1102"/><path d="M43.84,41.26c.51-.27,10.23-5.37,12.44-6a12.64,12.64,0,0,1,5.19-.09l-10-5.82a12.64,12.64,0,0,0-5.19.09c-2.22.66-11.94,5.76-12.45,6Z" transform="translate(-10.54 -7.57)" style="fill:#fa493f"/><path d="M33.85,51.39h0l1.06-.6L24.53,44.67h0c-.33.26-.65.5-.94.71h0l0,0Z" transform="translate(-10.54 -7.57)" style="fill:#db2107"/><path d="M38.61,46c2.55-1.47,6.66-3.53,6.88-3.64l-10-5.82c-.22.11-4.34,2.17-6.88,3.64Z" transform="translate(-10.54 -7.57)" style="fill:#db2107"/><path d="M34,57.91l.08,0A15.05,15.05,0,0,0,36,56.63l0,0a44.6,44.6,0,0,0,1.45-5.82s0,0,0,0h0a10.31,10.31,0,0,0-1.37.7l-.05,0-.07,0a12.41,12.41,0,0,0-1.61,1,37.76,37.76,0,0,0-2.21,6.22s0,.06,0,.07a8.74,8.74,0,0,0,1.8-.9Z" transform="translate(-10.54 -7.57)" style="fill:#d0dcd7"/><path d="M34.91,50.79h0c.07-.13.82-2.69,2.08-3.74a13.45,13.45,0,0,1,1.62-1l-10-5.82a13.45,13.45,0,0,0-1.62,1,13.09,13.09,0,0,0-2.45,3.44h0Z" transform="translate(-10.54 -7.57)" style="fill:#fa493f"/><path d="M56.28,35.23c-2.21.66-11.93,5.76-12.44,6l1.65,1.11c-.22.11-4.33,2.17-6.88,3.64a13.45,13.45,0,0,0-1.62,1c-1.26,1.05-2,3.61-2.08,3.74L45,45.17l2-1.12c5.52-3.1,14.15-7.64,14.6-7.88l-.09-1A12.64,12.64,0,0,0,56.28,35.23Zm-4.54,3.59v1.91l-1,.6V39.42Zm-4.47,4.24V41l.07,0,1.74-1v2Zm2.24-1V40l.84-.49v2Zm2.62-1.52V38.74l.91-.53V40Zm1.44-.83V38.13l.64-.36v1.54Z" transform="translate(-10.54 -7.57)" style="fill:#b41b06"/><path d="M31.4,52.84l.46-.34h0l2-1.11-10.22-6,0,0c-1,.71-1.7,1.28-1.74,1.31l-.46.34Z" transform="translate(-10.54 -7.57)" style="fill:#ecfaf4"/><path d="M25.61,61.8l.1.05.21.12h0l.13.07h0a1.31,1.31,0,0,0,.69,0l.1,0L27,62a10.54,10.54,0,0,0,1.86-.83A5,5,0,0,0,30,60.31l.11-.12c.73-.94,3.69-8.75,3.71-8.8h0l-2,1.11h0l-.46.34a31.32,31.32,0,0,0-3,3.89,33.15,33.15,0,0,0-2.76,5l-10-5.82a.81.81,0,0,0,.24.24l.05,0Zm.1,0Zm.08.08h0Zm-.13-.14h0Z" transform="translate(-10.54 -7.57)" style="fill:#d0dcd7"/><path d="M25.63,61.7a33.15,33.15,0,0,1,2.76-5,31.32,31.32,0,0,1,3-3.89L21.39,47a30.18,30.18,0,0,0-3,3.88,32.26,32.26,0,0,0-2.75,5Z" transform="translate(-10.54 -7.57)" style="fill:#e3f0ea"/><path d="M22.61,66.81l-.12-.14s0,0,0,0a.58.58,0,0,1,0-.14.08.08,0,0,1,0,0,.66.66,0,0,1,0-.21l-10-5.81a.78.78,0,0,0,.42.71l10,5.82,0,0-.13-.09Z" transform="translate(-10.54 -7.57)" style="fill:#db2107"/><path d="M48.52,51.13c-.45.36-.86.67-1.22.94l-.69.48c-1.19.8-2.93,1.83-4.85,2.94l-.16.1L39,57.09l-3.54,2c-3.56,2-6.91,4-8.4,4.74-3.34,1.67-4.59,2.36-4.66,2.39a.66.66,0,0,0,0,.21.08.08,0,0,0,0,0,.58.58,0,0,0,0,.14s0,0,0,0l.12.14,0,0,.13.09c1.2.75,4.8-.31,5.86-.83.52-.25,3.48-1.94,6.94-3.93,5.09-2.94,11.24-6.55,12.17-7.2,1.56-1.09,8.95-6.77,10.19-8.34a44.88,44.88,0,0,0,3.25-6C61,40.78,52.9,47.73,48.52,51.13Z" transform="translate(-10.54 -7.57)" style="fill:#b41b06"/><path d="M61.85,39.21l-.29-3c-.45.24-9.08,4.78-14.6,7.88l-2,1.12L34.91,50.79l-.24.14-.82.46c-.15.39-3,7.85-3.71,8.8l-.11.12a5,5,0,0,1-1.13.84A10.54,10.54,0,0,1,27,62l-.17.05-.1,0a1.31,1.31,0,0,1-.69,0l0,0,0,0,0,0h0l0,0-.16-.1-.1-.05s0,0,0,0c-.16.12-3.24,2.52-3.22,4.42.07,0,1.32-.72,4.66-2.39,1.49-.75,4.84-2.7,8.4-4.74l3.54-2,2.63-1.5.16-.1c1.92-1.11,3.66-2.14,4.85-2.94l.69-.48c.36-.27.77-.58,1.22-.94C52.9,47.73,61,40.78,61.18,40.63h0C61.58,39.79,61.83,39.24,61.85,39.21ZM32.07,58.86s0,0,0-.07a37.76,37.76,0,0,1,2.21-6.22,12.41,12.41,0,0,1,1.61-1l.07,0,.05,0a10.31,10.31,0,0,1,1.37-.7h0s0,0,0,0A44.6,44.6,0,0,1,36,56.61l0,0A15.05,15.05,0,0,1,34,57.86l-.08,0-.09.05A8.74,8.74,0,0,1,32.07,58.86ZM43.9,52.31a.48.48,0,0,1-.1.09,4.3,4.3,0,0,1-.45.3c-.42.28-1,.65-1.71,1l0,0-.1.05a22.87,22.87,0,0,1-3.31,1.72s0-.07,0-.17a22.24,22.24,0,0,1,1.25-5.58l.05-.05c.3-.24,1.52-1,2.72-1.67h0l.05,0c.79-.45,1.56-.88,2-1.13a1.46,1.46,0,0,1,.51-.21s0,0,0,.12A29,29,0,0,1,43.9,52.31Zm9.92-10.25c.43-.24.78,0,.79.45a1.72,1.72,0,0,1-.78,1.35c-.43.25-.78,0-.79-.45A1.74,1.74,0,0,1,53.82,42.06Zm-2.66,1.06c.44-.26.81,0,.81.46A1.76,1.76,0,0,1,51.16,45c-.44.26-.8.05-.8-.46A1.74,1.74,0,0,1,51.16,43.12Z" transform="translate(-10.54 -7.57)" style="fill:#c27d08"/><path d="M25.59,61.81s0,0,0,0l-9.7-5.64-.05,0L15.63,56s0,0-.05,0c-.16.13-3.24,2.52-3.22,4.43l10,5.81C22.35,64.33,25.43,61.93,25.59,61.81Z" transform="translate(-10.54 -7.57)" style="fill:#fca30b"/><path d="M48.18,32.5c.26.11,0,2,.16,2.1.47.49.3,1.15-.54,1.68a5,5,0,0,1-4,.4c-.84-.35-1.08-.94-.71-1.51.14-.2-.6-1.6-.32-1.77C43.84,32.71,47,32,48.18,32.5Z" transform="translate(-10.54 -7.57)" style="fill:#db2107"/><path d="M40.12,56.56a48.87,48.87,0,0,1-18.79-3.37C14.77,50.41,11,46.27,10.57,41.53c-.4-4.93,2.94-9.87,9.39-13.91C27.53,22.87,38.57,20,49.49,20a48.8,48.8,0,0,1,18.79,3.37c6.57,2.78,10.39,6.92,10.77,11.66C79.44,40,76.11,44.94,69.66,49,62.09,53.73,51,56.56,40.12,56.56Zm9.37-36c-10.83,0-21.77,2.8-29.27,7.5-6.28,3.94-9.53,8.72-9.15,13.45C11.43,46,15.14,50,21.53,52.73a48.37,48.37,0,0,0,18.59,3.33c10.84,0,21.78-2.8,29.27-7.5,6.29-3.94,9.54-8.72,9.16-13.45-.36-4.54-4.08-8.53-10.46-11.24A48.46,48.46,0,0,0,49.49,20.54Z" transform="translate(-10.54 -7.57)" style="fill:#fff"/><path d="M40.76,53.7a42.2,42.2,0,0,1-16.24-2.92c-5.68-2.4-9-6-9.32-10.1-.35-4.27,2.54-8.55,8.12-12,6.55-4.1,16.09-6.55,25.54-6.55A42.23,42.23,0,0,1,65.1,25c5.68,2.41,9,6,9.32,10.1.34,4.27-2.54,8.55-8.13,12C59.75,51.25,50.2,53.7,40.76,53.7Zm8.1-31.12c-9.36,0-18.8,2.42-25.27,6.48-5.42,3.39-8.22,7.51-7.9,11.58.32,3.91,3.52,7.35,9,9.68a41.63,41.63,0,0,0,16,2.88c9.35,0,18.8-2.42,25.27-6.48,5.42-3.39,8.22-7.51,7.89-11.58-.31-3.91-3.51-7.35-9-9.68A41.82,41.82,0,0,0,48.86,22.58Z" transform="translate(-10.54 -7.57)" style="fill:#fff"/><path d="M40.71,50.32A34.06,34.06,0,0,1,28,48.13c-4.59-1.86-7.27-4.7-7.56-8-.3-3.51,2.11-7.07,6.81-10,5.59-3.51,13.69-5.6,21.65-5.6a34.33,34.33,0,0,1,12.7,2.19c4.59,1.87,7.27,4.7,7.56,8,.3,3.51-2.12,7.07-6.81,10C56.76,48.23,48.67,50.32,40.71,50.32ZM48.91,25C41,25,33,27.09,27.53,30.55,23,33.39,20.66,36.78,21,40.1c.27,3.09,2.84,5.78,7.25,7.57a33.69,33.69,0,0,0,12.51,2.15c7.87,0,15.87-2.06,21.38-5.52,4.53-2.84,6.87-6.23,6.58-9.55-.27-3.09-2.85-5.78-7.25-7.57A33.69,33.69,0,0,0,48.91,25Z" transform="translate(-10.54 -7.57)" style="fill:#fff"/><path d="M41.75,47.05a25.62,25.62,0,0,1-9.5-1.64c-3.45-1.41-5.47-3.54-5.68-6-.23-2.65,1.58-5.32,5.11-7.53,4.18-2.63,10.24-4.19,16.19-4.19a25.66,25.66,0,0,1,9.5,1.64c3.45,1.4,5.47,3.54,5.68,6,.23,2.64-1.58,5.32-5.11,7.53C53.76,45.48,47.7,47.05,41.75,47.05Zm6.12-18.88c-5.87,0-11.82,1.54-15.93,4.11-3.36,2.11-5.09,4.62-4.88,7.07.2,2.28,2.11,4.27,5.37,5.59a25.1,25.1,0,0,0,9.32,1.61c5.86,0,11.82-1.54,15.92-4.12,3.36-2.1,5.1-4.61,4.88-7.06-.2-2.28-2.1-4.27-5.37-5.6A25,25,0,0,0,47.87,28.17Z" transform="translate(-10.54 -7.57)" style="fill:#fff"/><path d="M47.46,32c1.13.46,1.17,1.39.08,2.07a5,5,0,0,1-4,.4c-1.14-.46-1.18-1.39-.09-2.07A4.93,4.93,0,0,1,47.46,32Z" transform="translate(-10.54 -7.57)" style="fill:#ff6057"/><path d="M44.81,34C41,36.63,37.5,39.77,33.92,42.69c-4.25,3.45-9.24,6.66-12.84,10.81-.19.23.06.62.33.43,4.28-2.91,8.07-6.69,12-10,3.8-3.17,8.13-6.13,11.37-9.9,0,0,0,0,0,0Z" transform="translate(-10.54 -7.57)" style="fill:#dbf4ff"/><path d="M45.64,33.59c4.15,2.83,8.73,5.1,13.09,7.59s8.91,5.7,13.73,7.42c.31.11.46-.33.21-.5C68.09,45,62.81,42.65,57.94,40c-4-2.2-8-4.89-12.3-6.4,0,0,0,0,0,0Z" transform="translate(-10.54 -7.57)" style="fill:#dbf4ff"/><path d="M46,32.34c4.87,1.22,9.94,1.77,14.89,2.6s10.32,2.28,15.45,2.24a.28.28,0,0,0,.07-.54C71,35.28,65.28,34.93,59.8,34.09c-4.51-.68-9.2-1.83-13.78-1.77,0,0,0,0,0,0Z" transform="translate(-10.54 -7.57)" style="fill:#dbf4ff"/><path d="M42.58,34c-4.37,1.49-8.56,3.57-12.79,5.41-5,2.19-10.71,3.94-15.31,7-.25.16-.1.6.21.5,4.89-1.66,9.55-4.27,14.25-6.38,4.52-2,9.5-3.72,13.65-6.48,0,0,0,0,0,0Z" transform="translate(-10.54 -7.57)" style="fill:#dbf4ff"/><path d="M45.5,32.51c0-2.59-1.7-5.5-2.6-7.87-.63-1.64-1.12-4.12-2.37-5.44a.28.28,0,0,0-.47.19C40.12,21,41.35,23,42,24.4c1.18,2.62,1.93,5.68,3.48,8.12,0,0,0,0,0,0Z" transform="translate(-10.54 -7.57)" style="fill:#dbf4ff"/><path d="M46,33c1.06-2.21.79-5.32,1-7.69.14-1.91.84-4.58.22-6.45-.07-.2-.4-.3-.5-.07-.64,1.53-.36,3.68-.38,5.29,0,2.91-.68,6-.31,8.91a0,0,0,0,0,0,0Z" transform="translate(-10.54 -7.57)" style="fill:#dbf4ff"/><path d="M84.85,17.56c-.06,0-.44-.25-.5-.24s-.3-.08-.31-.33a1.28,1.28,0,0,1,.42-1c.19-.15.36-.12.44,0s.44.07.44.16A2.36,2.36,0,0,1,84.85,17.56Z" transform="translate(-10.54 -7.57)" style="fill:#db2107"/><path d="M81.42,24.52c-1.81,0-3-1.6-3.12-4.2A15.43,15.43,0,0,1,83.57,8.76a5,5,0,0,1,2.94-1.19c1.8,0,3,1.61,3.12,4.2a15.43,15.43,0,0,1-5.27,11.56A5,5,0,0,1,81.42,24.52ZM86.51,7.79A4.82,4.82,0,0,0,83.7,8.94a15.2,15.2,0,0,0-5.18,11.37c.12,2.5,1.2,4,2.9,4a4.82,4.82,0,0,0,2.81-1.15A15.2,15.2,0,0,0,89.4,11.78C89.29,9.28,88.21,7.79,86.51,7.79Z" transform="translate(-10.54 -7.57)" style="fill:#fff"/><path d="M81.86,23.44c-1.57,0-2.61-1.4-2.71-3.65a13.32,13.32,0,0,1,4.55-10,4.35,4.35,0,0,1,2.56-1c1.56,0,2.6,1.39,2.7,3.64a13.34,13.34,0,0,1-4.55,10A4.35,4.35,0,0,1,81.86,23.44ZM86.26,9a4.11,4.11,0,0,0-2.42,1,13.12,13.12,0,0,0-4.47,9.81c.1,2.15,1,3.44,2.49,3.44a4.13,4.13,0,0,0,2.41-1,13.05,13.05,0,0,0,4.47-9.81C88.64,10.26,87.71,9,86.26,9Z" transform="translate(-10.54 -7.57)" style="fill:#fff"/><path d="M82.41,22.25c-1.28,0-2.12-1.17-2.2-3a11.11,11.11,0,0,1,3.65-8.28,3.45,3.45,0,0,1,2.06-.86c1.27,0,2.11,1.16,2.2,3a11.21,11.21,0,0,1-3.65,8.29A3.48,3.48,0,0,1,82.41,22.25Zm3.51-12A3.22,3.22,0,0,0,84,11.1a10.93,10.93,0,0,0-3.57,8.1c.08,1.77.82,2.82,2,2.82a3.25,3.25,0,0,0,1.92-.81,11,11,0,0,0,3.57-8.1C87.81,11.35,87.07,10.29,85.92,10.29Z" transform="translate(-10.54 -7.57)" style="fill:#fff"/><path d="M82.87,20.74c-1,0-1.61-.88-1.67-2.29a8.4,8.4,0,0,1,2.73-6.21,2.66,2.66,0,0,1,1.56-.65c1,0,1.6.88,1.67,2.3a8.35,8.35,0,0,1-2.74,6.2A2.61,2.61,0,0,1,82.87,20.74Zm2.62-8.92a2.36,2.36,0,0,0-1.42.6,8.08,8.08,0,0,0-2.65,6c.06,1.3.6,2.08,1.45,2.08a2.37,2.37,0,0,0,1.41-.6,8.16,8.16,0,0,0,2.66-6C86.88,12.59,86.33,11.82,85.49,11.82Z" transform="translate(-10.54 -7.57)" style="fill:#fff"/><path d="M85.06,17.46c-.25.2-.47.09-.48-.25a1.26,1.26,0,0,1,.42-1c.25-.2.47-.09.48.24A1.28,1.28,0,0,1,85.06,17.46Z" transform="translate(-10.54 -7.57)" style="fill:#ff6057"/><path d="M84.94,16.6c-.1-1.13-.35-2.24-.53-3.35a29.21,29.21,0,0,0-.86-4.55.07.07,0,0,0-.14,0c.12,1.27.46,2.53.69,3.78a25.9,25.9,0,0,0,.83,4.1Z" transform="translate(-10.54 -7.57)" style="fill:#dbf4ff"/><path d="M84.93,16.84c-1.13.55-2.19,1.27-3.26,1.91A26.22,26.22,0,0,0,78.07,21c-.06,0,0,.14.09.11,1.25-.62,2.41-1.48,3.59-2.22a23.05,23.05,0,0,0,3.18-2.06Z" transform="translate(-10.54 -7.57)" style="fill:#dbf4ff"/><path d="M85.16,17.09C84.3,18,83.55,19,82.77,20a24.72,24.72,0,0,0-2.6,3.36.07.07,0,0,0,.11.08c1-1,1.75-2.22,2.61-3.32a23.08,23.08,0,0,0,2.28-3Z" transform="translate(-10.54 -7.57)" style="fill:#dbf4ff"/><path d="M85.24,16.1c.2-1.11.27-2.25.39-3.37A29.68,29.68,0,0,0,86,8.12a.07.07,0,0,0-.14,0c-.23,1.24-.24,2.55-.36,3.81a27.89,27.89,0,0,0-.3,4.18Z" transform="translate(-10.54 -7.57)" style="fill:#dbf4ff"/><path d="M85.19,16.94a6.11,6.11,0,0,0,2.12.42,4.26,4.26,0,0,0,1.54.16.07.07,0,0,0,0-.13,4.21,4.21,0,0,0-1.37-.2,16.48,16.48,0,0,0-2.31-.25Z" transform="translate(-10.54 -7.57)" style="fill:#dbf4ff"/><path d="M85,17a5.77,5.77,0,0,0,1.64,1.21,4.68,4.68,0,0,0,1.42.88c.06,0,.13-.05.08-.11a4.52,4.52,0,0,0-1.29-.85A15.94,15.94,0,0,0,85,17Z" transform="translate(-10.54 -7.57)" style="fill:#dbf4ff"/></g></svg>