<svg id="Layer_1" data-name="Layer 1" xmlns="http://www.w3.org/2000/svg" xmlns:xlink="http://www.w3.org/1999/xlink" viewBox="0 0 297.18 206.13"><defs><linearGradient id="linear-gradient" x1="246.95" y1="83.61" x2="234.64" y2="197.82" gradientTransform="matrix(0.98, -0.18, 0.18, 0.98, -12.11, 121.25)" gradientUnits="userSpaceOnUse"><stop offset="0" stop-color="#2bdbfa"/><stop offset="0.17" stop-color="#28d3f6"/><stop offset="0.42" stop-color="#20bfea"/><stop offset="0.73" stop-color="#139dd7"/><stop offset="1" stop-color="#0579c3"/><stop offset="1" stop-color="#001cbb"/></linearGradient><linearGradient id="linear-gradient-2" x1="240.24" y1="229.36" x2="243.95" y2="158.73" gradientTransform="matrix(0.98, -0.18, 0.18, 0.98, -12.11, 121.25)" gradientUnits="userSpaceOnUse"><stop offset="0" stop-color="#2bdbfa"/><stop offset="0.23" stop-color="#24c9f0"/><stop offset="0.69" stop-color="#129bd6"/><stop offset="1" stop-color="#0579c3"/><stop offset="1" stop-color="#001cbb"/></linearGradient><linearGradient id="linear-gradient-3" x1="218.24" y1="148.28" x2="218.24" y2="249.6" gradientTransform="matrix(0.98, -0.18, 0.18, 0.98, -12.11, 121.25)" gradientUnits="userSpaceOnUse"><stop offset="0" stop-color="#2bdbfa"/><stop offset="0.25" stop-color="#2ad8f8"/><stop offset="0.45" stop-color="#26cef3"/><stop offset="0.62" stop-color="#20beea"/><stop offset="0.78" stop-color="#17a7dd"/><stop offset="0.93" stop-color="#0c8acd"/><stop offset="1" stop-color="#0579c3"/><stop offset="1" stop-color="#001cbb"/></linearGradient><linearGradient id="linear-gradient-4" x1="216.32" y1="214.54" x2="212.28" y2="251.95" xlink:href="#linear-gradient-3"/><linearGradient id="linear-gradient-5" x1="268.69" y1="228.43" x2="265.01" y2="262.52" xlink:href="#linear-gradient-3"/><linearGradient id="linear-gradient-6" x1="166.69" y1="206.67" x2="162.38" y2="246.67" xlink:href="#linear-gradient-3"/><linearGradient id="linear-gradient-7" x1="259.27" y1="249.04" x2="256.71" y2="272.77" xlink:href="#linear-gradient-3"/><linearGradient id="linear-gradient-8" x1="125.58" y1="73.01" x2="122.73" y2="99.47" xlink:href="#linear-gradient-3"/><linearGradient id="linear-gradient-9" x1="257.9" y1="62.85" x2="253.82" y2="100.73" xlink:href="#linear-gradient-3"/><linearGradient id="linear-gradient-10" x1="370.2" y1="135.33" x2="368.85" y2="147.86" xlink:href="#linear-gradient-3"/><linearGradient id="linear-gradient-11" x1="356.35" y1="178.45" x2="353.34" y2="206.44" xlink:href="#linear-gradient-3"/><linearGradient id="linear-gradient-12" x1="139.68" y1="122.35" x2="228.54" y2="165.96" gradientTransform="matrix(0.98, -0.18, 0.18, 0.98, -12.11, 121.25)" gradientUnits="userSpaceOnUse"><stop offset="0" stop-color="#fff" stop-opacity="0.81"/><stop offset="0.69" stop-color="#fff" stop-opacity="0.31"/><stop offset="1" stop-color="#fff" stop-opacity="0.1"/></linearGradient><linearGradient id="linear-gradient-13" x1="244.28" y1="75.44" x2="254.33" y2="80.37" xlink:href="#linear-gradient-12"/></defs><title>water-splash-1</title><path d="M366.41,204.6c-14.83-1.67-25.43,9.41-39.29,9.57.72-10.47,23-11.1,25.71-24.1,2.33-11.21-7.08-11.72-14.64-7.88-9.16,4.66-15.12,12.58-21.8,20-4,4.46-12.57,14.58-19.48,9.86-7.5-5.12,9.92-22.42-4.8-20.23-10.69,1.6-5.69,17.86-13.39,19-10.45,1.61.71-14.4,2.57-17.07,4.87-7,10.48-13.6,7-23-3.13-8.54-11.33-8.69-18.41-3.21-16.27,12.58.08,32.91-7.08,47.07-3.64,7.18-11.41,8.38-17.08,3.79-6-4.88-4-10.89-3.23-17.62C243.2,194.94,245.8,183,237,182c-13.26-1.53-4.76,12.85-4.26,17.62.71,6.83-5.23,14.14-11.95,7.82-4-3.78-2.35-16.43-3.7-21.82-1.52-6.11-6-17.06-14.17-9.87-7.47,6.57,2.84,16.32,5.52,22.65,3.3,7.82,1.08,14.48-8.52,11.17-7-2.42-9.66-9.85-13.12-15.67-3.07-5.15-7.7-15.4-14.25-16.86-7.49-1.69-14.78,5.34-14.71,11.82.15,13,29.7,25.3,12.21,36.35-5.27,3.34-16.68,4.39-22.74,3.68-7-.83-17.21-8.39-24.23-4.76-10.11,5.24.5,12.63,7.38,13.83,7.84,1.37,20.76-.05,17.94,12.45L312.9,275.79c7.14-10.37,13.91-40.68,26.27-46.13,11.24-4.95,23.81-3.78,35.21-6.84C389.71,218.7,377.85,205.9,366.41,204.6Z" transform="translate(-103.51 -139.18)" style="fill:url(#linear-gradient)"/><path d="M310.28,214.81c-6.26,3.32-7,11-7.64,17.17-.55,5-2.34,15.22-8.37,8.22-2.79-3.25,4-27.21-2.47-27.61-4.09-.25-15.57,17.31-18.4,25.77-3.25,9.7-12.25,18.43-24.64,5.08-7.82-8.43-20.49-34-37.11-32.87-6.33.44-.73,15-6.6,15.22-5.09.21-2.92-7.77-7.38-9.73-8.69-3.8-23.47-1.23-16.6,11.58l23,37.6C210.43,278.2,232,290,245,295.76c11.25,5,19.14,3.58,30.93,1.36,27.12-5.11,56.58-40.22,54.91-68.54C330.24,218.34,320.86,209.21,310.28,214.81Z" transform="translate(-103.51 -139.18)" style="opacity:0.7000000000000001;fill:url(#linear-gradient-2)"/><path d="M340,219c-6.84.54-14,3.18-20.19,5.81-4.16,1.77-14.18,9.67-18.7,8.83-8.86-1.64,0-11.53-7.3-17.09-10.06-7.64-15.74,29.77-17.2,34.11-4.66,13.84-16,15.34-26.58,6.75-11.11-9.05-14.8-23.08-23.11-34.29-4.62-6.24-11.77-13.28-17.28-12.16-9,1.83-1.56,13.09-15.34,11.34-17.13-2.17-27.19-23.88-46.09-19.6-9.26,2.09-15.65,9.35-7.19,17.19,4.22,3.92,24.65,5.83,20.47,16-5.12,12.41-46.49-12.56-52.09,11.28-5.17,22,45,9.92,54.34,11.88,29,6.08,12.84,46.21,35.8,56.9,27.05,12.59,60.91,11.48,89.62,7.24,31.89-4.71,42.49-11.11,38.63-42.6-3.92-32,45.88-63.14,13.25-61.61Z" transform="translate(-103.51 -139.18)" style="fill:url(#linear-gradient-3)"/><path d="M184.49,300s-23.56,35.12,116.43,28.5C300.92,328.45,155.65,347.24,184.49,300Z" transform="translate(-103.51 -139.18)" style="fill:url(#linear-gradient-4)"/><path d="M333.62,297.29s40.38,32-91.88,40C241.74,337.28,394.65,334.87,333.62,297.29Z" transform="translate(-103.51 -139.18)" style="fill:url(#linear-gradient-5)"/><path d="M180.38,297.89s-31.79,31,35.77,37.48C216.15,335.37,133.11,336.36,180.38,297.89Z" transform="translate(-103.51 -139.18)" style="fill:url(#linear-gradient-6)"/><path d="M221.08,342s119.73,5.46,133.83-25.14C354.42,314.39,363.25,357.39,221.08,342Z" transform="translate(-103.51 -139.18)" style="fill:url(#linear-gradient-7)"/><path d="M125.81,174.62l-1-.32c-6.08-2-21.58-3.08-21.35,7,.32,14.19,35.11,11.83,44.55,15.77-2.68-1.12-6.63-10.9-9-13.44A35.23,35.23,0,0,0,125.81,174.62Z" transform="translate(-103.51 -139.18)" style="fill:url(#linear-gradient-8)"/><path d="M260.16,140.63c-7.15-5.49-14.41,5.94-15.4,12.14-1.19,7.46,2,19.89,7.33,24.62l-.17-.9C251,167.28,270.76,148.76,260.16,140.63Z" transform="translate(-103.51 -139.18)" style="fill:url(#linear-gradient-9)"/><path d="M393.49,193.84c-5.27-11.79-27.66-.14-33.86,4.3C359.63,198.14,399.53,207.35,393.49,193.84Z" transform="translate(-103.51 -139.18)" style="fill:url(#linear-gradient-10)"/><path d="M388.37,236.89c-17.49-5.37-33.16.42-46.07,10.2,0,0,29.38,2.17,49.85,13.22C403.31,266.33,405,242,388.37,236.89Z" transform="translate(-103.51 -139.18)" style="fill:url(#linear-gradient-11)"/><path d="M242.5,253c-8.64-10.82-11.7-26.91-23.28-35.64-2.53-1.91-5.88-4-9.06-2.92-3.79,1.33-3.33,6.11-6.29,8.38-4.21,3.2-12.41,1.7-16.71-.55,3,2.92,7.74,6.18,12.2,5.95,5.15-.28,8.08-6,13.17-6.39,5.77-.41,9.19,5.92,11.49,10.32,5,9.54,9.41,19.74,16.83,27.72,3.41,3.66,7.71,7.49,12.74,8.61,3.67.82,13.5-.45,15.52-4.32C257.45,270.32,249,261.1,242.5,253Z" transform="translate(-103.51 -139.18)" style="fill:url(#linear-gradient-12)"/><path d="M255.09,142.24c-5.3-.73-8.47,7-8.8,11-.36,4.45,1.24,11.92,2.64,14.48C248.93,167.68,264.61,143.55,255.09,142.24Z" transform="translate(-103.51 -139.18)" style="fill:url(#linear-gradient-13)"/></svg>